<!-- <?xml version="1.0" standalone="no"?>
<!DOCTYPE svg PUBLIC "-//W3C//DTD SVG 20010904//EN"
 "http://www.w3.org/TR/2001/REC-SVG-20010904/DTD/svg10.dtd"> -->
<svg version="1.0" xmlns="http://www.w3.org/2000/svg"
 width="85pt" height="128pt" fill="#cc348e" viewBox="0 0 850.000000 1280.000000"
 preserveAspectRatio="xMidYMid meet">
<metadata>
Created by potrace 1.15, written by Peter Selinger 2001-2017
</metadata>
<g transform="translate(0.000000,1280.000000) scale(0.100000,-0.100000)"
fill="#cc348e" stroke="none">
<path d="M3305 12698 c-167 -175 -319 -379 -641 -859 -106 -158 -224 -341
-263 -408 -89 -149 -106 -157 -69 -31 16 57 121 250 197 366 39 59 71 117 71
129 0 34 -80 65 -330 129 -291 74 -610 128 -850 142 -104 7 -110 6 -110 -12 0
-29 31 -139 98 -350 93 -294 148 -599 173 -954 16 -227 16 -1033 0 -1074 -9
-23 -14 -27 -24 -17 -8 8 -14 87 -18 264 -4 139 -10 290 -13 337 -3 47 -11
195 -16 330 -6 135 -13 268 -16 297 l-6 52 -47 -5 c-272 -32 -602 -168 -904
-373 -124 -84 -327 -256 -327 -277 0 -5 34 -45 75 -88 140 -145 335 -424 497
-711 198 -350 474 -896 484 -955 l5 -35 -25 30 c-32 37 -127 212 -196 362 -63
135 -75 143 -178 124 -95 -18 -236 -75 -477 -195 -166 -82 -365 -195 -394
-222 -10 -9 28 -38 104 -81 161 -89 439 -345 618 -568 107 -134 307 -432 411
-614 42 -73 172 -309 288 -525 427 -792 646 -1115 1001 -1474 189 -191 407
-366 597 -478 l53 -31 -86 -41 c-70 -35 -105 -61 -198 -149 -214 -206 -402
-448 -528 -682 -84 -156 -201 -418 -208 -466 -7 -54 -14 -52 158 -30 723 95
1236 329 1543 704 72 89 176 259 202 330 20 56 16 55 125 45 l66 -7 -18 -36
c-9 -20 -33 -83 -52 -141 -19 -58 -54 -154 -77 -215 -65 -168 -131 -448 -167
-708 -24 -172 -24 -512 0 -667 27 -175 103 -450 128 -466 19 -11 45 8 86 64
23 31 76 100 118 152 43 52 100 128 129 168 l51 74 3 -416 2 -416 59 0 c39 0
63 -5 71 -15 7 -8 18 -72 26 -142 16 -152 73 -448 114 -588 67 -230 171 -518
230 -635 98 -196 226 -390 333 -508 57 -62 154 -132 183 -132 62 0 102 50 89
112 -14 66 -80 227 -178 438 -127 275 -169 378 -256 630 -119 349 -137 426
-211 935 -89 615 -84 556 -84 945 -1 523 30 866 125 1400 17 96 35 178 38 183
4 4 122 32 262 61 140 30 301 66 358 81 57 14 105 24 107 22 7 -7 -232 -68
-400 -102 -88 -17 -161 -36 -163 -42 -5 -14 77 -169 145 -273 157 -242 333
-399 603 -539 311 -161 668 -263 999 -286 47 -3 106 -8 133 -11 42 -4 47 -3
47 16 0 31 -94 262 -164 400 -125 251 -261 443 -451 639 -109 112 -293 268
-354 301 -23 12 -17 15 105 60 553 202 795 358 1016 655 176 235 308 536 399
912 73 299 109 558 164 1153 71 774 116 1069 216 1421 118 418 279 728 563
1083 23 29 26 39 16 51 -24 29 -335 136 -525 181 -95 22 -334 64 -366 64 -73
0 -136 -153 -178 -435 -11 -71 -24 -141 -29 -155 l-10 -25 -7 29 c-20 75 32
414 100 655 90 322 251 689 415 946 103 163 108 172 90 189 -8 7 -58 24 -110
37 -87 22 -116 24 -340 24 -150 0 -278 -5 -330 -13 -146 -22 -285 -55 -297
-70 -13 -15 -17 -58 -33 -303 -9 -156 -30 -269 -49 -269 -5 0 -9 105 -10 233
-1 127 -9 302 -17 387 -8 85 -12 178 -9 205 6 45 -27 304 -41 327 -10 16 -40
8 -74 -21 -81 -66 -450 -251 -639 -320 -46 -17 -92 -38 -103 -47 -22 -21 -23
-69 -2 -144 8 -30 17 -107 21 -170 10 -206 -37 -361 -142 -466 -57 -57 -183
-124 -280 -149 -319 -82 -773 14 -1097 231 -114 77 -168 132 -193 197 -15 41
-16 54 -6 88 58 195 498 300 704 169 42 -26 107 -113 94 -126 -3 -3 -34 3 -69
14 -104 32 -206 44 -344 40 -105 -2 -135 -7 -161 -22 -44 -27 -59 -65 -40
-102 37 -71 161 -162 332 -244 183 -88 297 -115 480 -114 156 1 243 22 382 89
103 50 195 130 228 200 28 56 26 156 -3 211 -102 196 -560 407 -1042 481 -85
13 -176 17 -345 17 -329 0 -513 -21 -740 -82 -102 -28 -145 -35 -145 -23 0 29
155 75 322 96 112 15 172 31 166 45 -2 4 -55 54 -118 112 -138 126 -187 178
-340 368 -65 80 -133 162 -152 184 l-34 38 -99 -104z m35 -800 c5 -31 22 -89
39 -130 147 -353 540 -722 1011 -949 91 -44 174 -85 185 -91 11 -6 121 -62
245 -125 124 -63 246 -128 271 -144 89 -56 91 -56 236 72 207 184 361 304 658
514 248 176 360 304 395 454 13 56 9 248 -6 285 -5 14 -3 18 7 14 23 -6 68
-108 79 -178 15 -99 12 -184 -11 -278 -44 -183 -90 -234 -529 -585 -179 -143
-343 -276 -365 -295 -73 -64 -165 -154 -165 -162 0 -5 22 -22 49 -38 27 -17
86 -59 132 -93 46 -34 104 -71 128 -81 43 -20 44 -20 70 1 14 11 90 54 168 95
582 308 758 422 967 625 186 181 285 318 356 488 23 56 50 109 61 119 18 16
19 16 19 -12 0 -119 -132 -408 -307 -673 -73 -111 -259 -297 -388 -388 -55
-39 -191 -126 -303 -192 -413 -246 -631 -407 -1052 -774 -230 -201 -241 -212
-234 -232 3 -8 58 -53 122 -101 65 -48 188 -145 274 -216 86 -70 162 -128 169
-128 7 0 67 31 133 69 226 128 363 190 856 383 670 262 932 419 1273 762 109
110 152 146 154 134 7 -27 -21 -75 -106 -189 -124 -164 -253 -279 -518 -456
-347 -234 -520 -332 -883 -501 -314 -146 -587 -283 -701 -350 -288 -171 -614
-496 -736 -737 -47 -92 -123 -266 -123 -282 0 -7 47 -35 104 -63 517 -252 871
-705 1117 -1430 38 -111 73 -239 95 -350 20 -96 47 -227 61 -290 28 -131 43
-312 24 -294 -7 6 -28 85 -47 175 -41 197 -197 677 -266 821 -74 154 -148 274
-247 396 -50 62 -102 132 -116 156 -44 75 -280 277 -465 399 -282 185 -587
295 -1110 402 -290 59 -422 79 -1030 155 -599 76 -842 120 -1225 225 -296 81
-459 141 -670 245 -215 105 -271 144 -400 274 -114 115 -159 183 -153 233 3
26 7 24 104 -67 75 -71 126 -108 199 -148 192 -104 390 -178 661 -246 367 -92
676 -147 1654 -291 562 -83 909 -142 1260 -215 225 -46 225 -46 69 64 -74 52
-182 123 -242 156 -59 34 -129 79 -155 99 -26 21 -61 42 -79 48 -18 7 -83 44
-145 84 -177 114 -571 297 -1172 544 -792 325 -1124 487 -1372 670 -99 72
-351 327 -434 437 -61 81 -77 110 -158 293 -44 99 -106 293 -117 367 -4 26 -4
60 -1 74 6 23 9 25 20 13 7 -8 19 -36 25 -64 33 -137 170 -367 325 -548 155
-181 255 -273 431 -399 211 -150 325 -219 515 -314 294 -146 532 -243 1077
-438 471 -168 662 -242 696 -267 15 -11 53 -29 84 -40 111 -38 237 -122 503
-335 144 -115 221 -184 319 -285 43 -43 83 -79 89 -79 16 0 54 79 87 180 31
97 80 185 165 298 76 101 231 265 286 303 65 45 71 62 35 106 -31 38 -176 165
-271 238 -110 84 -326 223 -800 514 -417 257 -494 302 -729 431 -123 67 -252
139 -287 160 -34 21 -122 73 -196 116 -220 128 -409 256 -460 312 -25 29 -51
52 -58 52 -34 0 -268 269 -365 420 -27 41 -63 98 -81 125 -52 79 -89 169 -127
315 -41 152 -57 237 -57 289 1 53 14 23 44 -98 17 -66 38 -124 60 -160 19 -31
40 -69 45 -84 25 -65 134 -202 270 -338 291 -289 522 -450 1046 -726 449 -237
1116 -631 1288 -761 37 -29 77 -52 87 -52 11 0 97 77 212 193 132 132 212 203
253 226 124 71 195 122 195 139 -1 21 37 -5 -455 319 -225 149 -484 313 -575
365 -91 52 -192 111 -225 132 -224 143 -490 387 -618 566 -142 201 -257 494
-257 659 0 52 19 26 30 -41z m2317 -7084 c-3 -3 -12 -4 -19 -1 -8 3 -5 6 6 6
11 1 17 -2 13 -5z m-827 -174 c0 -5 -21 -76 -46 -157 -26 -82 -59 -193 -75
-248 l-28 -100 0 70 c-1 39 -7 104 -15 145 -8 41 -16 120 -17 175 l-2 100 76
5 c41 3 79 8 83 13 10 10 24 9 24 -3z m-360 -1577 c-11 -17 -11 -17 -6 0 3 10
6 24 7 30 0 9 2 9 5 0 3 -7 0 -20 -6 -30z"/>
</g>
</svg>
