<svg id="evghO3RcwaJ1" xmlns="http://www.w3.org/2000/svg" xmlns:xlink="http://www.w3.org/1999/xlink" viewBox="0 0 47 46" shape-rendering="geometricPrecision" text-rendering="geometricPrecision"><ellipse rx="17.868" ry="17.4199" transform="translate(23.308053 22.779888)" fill="#eae73b" stroke-width="0"/><ellipse rx="0.056013" ry="0.120427" transform="translate(23.252053 22.900388)" fill="#d2dbed" stroke-width="0"/><rect width="4.36898" height="1.12025" rx="0" ry="0" transform="matrix(-.016327-.999867 0.999867-.016327 22.671652 4.386688)" fill="#eae73b" stroke-width="0"/><rect width="4.36898" height="1.12025" rx="0" ry="0" transform="matrix(-.422331-.906441 0.906441-.422331 16.835453 5.538288)" fill="#eae73b" stroke-width="0"/><rect width="4.36898" height="1.12025" rx="0" ry="0" transform="matrix(-.627085-.778951 0.778951-.627085 11.129452 8.667188)" fill="#eae73b" stroke-width="0"/><rect width="4.36898" height="1.12025" rx="0" ry="0" transform="matrix(.32678-.9451 0.9451 0.32678 28.501252 4.986388)" fill="#eae73b" stroke-width="0"/><rect width="4.36898" height="1.12025" rx="0" ry="0" transform="matrix(.563039-.82643 0.82643 0.563039 34.292453 7.333988)" fill="#eae73b" stroke-width="0"/><rect width="4.36898" height="1.12025" rx="0" ry="0" transform="matrix(.778449-.627708 0.627708 0.778449 38.465853 11.422888)" fill="#eae73b" stroke-width="0"/><rect width="4.36898" height="1.12025" rx="0" ry="0" transform="matrix(-.83491-.550387-.550387 0.83491 7.572152 11.957188)" fill="#eae73b" stroke-width="0"/><rect width="4.36898" height="1.12025" rx="0" ry="0" transform="matrix(-.941266-.337667-.337667 0.941266 5.188952 16.832388)" fill="#eae73b" stroke-width="0"/><rect width="4.36898" height="1.12025" rx="0" ry="0" transform="matrix(-.999952-.009803-.009803 0.999952 4.379752 22.360088)" fill="#eae73b" stroke-width="0"/><rect width="4.36898" height="1.12025" rx="0" ry="0" transform="matrix(-.937573 0.347788 0.347788 0.937573 4.924252 28.240688)" fill="#eae73b" stroke-width="0"/><rect width="4.36898" height="1.12025" rx="0" ry="0" transform="matrix(-.780326 0.625373 0.625373 0.780326 7.102652 33.718588)" fill="#eae73b" stroke-width="0"/><rect width="4.36898" height="1.12025" rx="0" ry="0" transform="matrix(-.618655 0.785663 0.785663 0.618655 11.278252 37.619788)" fill="#eae73b" stroke-width="0"/><rect width="4.36898" height="1.12025" rx="0" ry="0" transform="matrix(-.385026 0.922906 0.922906 0.385026 16.249252 40.089488)" fill="#eae73b" stroke-width="0"/><rect width="4.36898" height="1.12025" rx="0" ry="0" transform="matrix(-.056494 0.998403 0.998403 0.056494 22.133053 41.355888)" fill="#eae73b" stroke-width="0"/><rect width="4.36898" height="1.12025" rx="0" ry="0" transform="matrix(.221865 0.975077 0.975077-.221865 27.867353 40.769288)" fill="#eae73b" stroke-width="0"/><rect width="4.36898" height="1.12025" rx="0" ry="0" transform="matrix(.488692 0.872456 0.872456-.488692 33.966152 38.396988)" fill="#eae73b" stroke-width="0"/><rect width="4.36898" height="1.12025" rx="0" ry="0" transform="matrix(.759444 0.650572 0.650572-.759444 37.820053 34.963088)" fill="#eae73b" stroke-width="0"/><rect width="4.36898" height="1.12025" rx="0" ry="0" transform="matrix(.928634 0.370996 0.370996-.928634 40.869553 30.331288)" fill="#eae73b" stroke-width="0"/><rect width="4.36898" height="1.12025" rx="0" ry="0" transform="matrix(.978563 0.205947 0.205947-.978563 42.218453 25.366788)" fill="#eae73b" stroke-width="0"/><rect width="4.36898" height="1.12025" rx="0" ry="0" transform="matrix(.990854-.13494-.13494-.990854 42.395453 20.833388)" fill="#eae73b" stroke-width="0"/><rect width="4.36898" height="1.12025" rx="0" ry="0" transform="matrix(.947704-.31915-.31915-.947704 41.702153 15.884288)" fill="#eae73b" stroke-width="0"/></svg>
